<?xml version="1.0" encoding="UTF-8" standalone="no"?>
<!-- Created with Inkscape (http://www.inkscape.org/) -->

<svg
   width="180"
   height="180"
   viewBox="0 0 180 180"
   version="1.1"
   id="svg5"
   xmlns="http://www.w3.org/2000/svg"
   xmlns:svg="http://www.w3.org/2000/svg"
   xmlns:rdf="http://www.w3.org/1999/02/22-rdf-syntax-ns#"
   xmlns:cc="http://creativecommons.org/ns#">
  <defs
     id="defs2">
    <rect
       x="412.5144"
       y="939.04028"
       width="246.67946"
       height="95.355087"
       id="rect22185" />
    <rect
       x="201.07484"
       y="213.51247"
       width="190.71017"
       height="47.677544"
       id="rect13423" />
    <rect
       x="259.11707"
       y="259.11707"
       width="339.57745"
       height="57.898167"
       id="rect4268" />
    <rect
       x="876.85223"
       y="45.604607"
       width="182.41843"
       height="68.406914"
       id="rect4619" />
    <rect
       x="212.5"
       y="377.46335"
       width="25.887714"
       height="42.684067"
       id="rect75258" />
    <marker
       style="overflow:visible"
       id="marker71138"
       refX="0"
       refY="0"
       orient="auto">
      <path
         transform="scale(-0.6)"
         d="M 8.7185878,4.0337352 -2.2072895,0.01601326 8.7185884,-4.0017078 c -1.7454984,2.3720609 -1.7354408,5.6174519 -6e-7,8.035443 z"
         style="fill:context-stroke;fill-rule:evenodd;stroke:context-stroke;stroke-width:0.625;stroke-linejoin:round"
         id="path71136" />
    </marker>
    <marker
       style="overflow:visible"
       id="marker70739"
       refX="0"
       refY="0"
       orient="auto">
      <path
         transform="scale(-0.6)"
         d="M 8.7185878,4.0337352 -2.2072895,0.01601326 8.7185884,-4.0017078 c -1.7454984,2.3720609 -1.7354408,5.6174519 -6e-7,8.035443 z"
         style="fill:context-stroke;fill-rule:evenodd;stroke:context-stroke;stroke-width:0.625;stroke-linejoin:round"
         id="path70737" />
    </marker>
    <marker
       style="overflow:visible"
       id="Arrow2Mend"
       refX="0"
       refY="0"
       orient="auto">
      <path
         transform="scale(-0.6)"
         d="M 8.7185878,4.0337352 -2.2072895,0.01601326 8.7185884,-4.0017078 c -1.7454984,2.3720609 -1.7354408,5.6174519 -6e-7,8.035443 z"
         style="fill:context-stroke;fill-rule:evenodd;stroke:context-stroke;stroke-width:0.625;stroke-linejoin:round"
         id="path70494" />
    </marker>
    <rect
       x="157.54318"
       y="213.51248"
       width="296.42996"
       height="128.52206"
       id="rect42963" />
    <rect
       x="298.50287"
       y="970.13434"
       width="781.98083"
       height="45.604603"
       id="rect22209" />
    <rect
       x="157.54318"
       y="213.51248"
       width="296.42996"
       height="128.52206"
       id="rect52348" />
    <rect
       x="157.54318"
       y="213.51248"
       width="265.33591"
       height="41.458729"
       id="rect52358" />
    <rect
       x="157.54318"
       y="213.51248"
       width="188.63724"
       height="35.239922"
       id="rect52368" />
    <rect
       x="212.5"
       y="377.46335"
       width="32.106525"
       height="38.538193"
       id="rect79606" />
    <rect
       x="212.5"
       y="377.46335"
       width="25.887714"
       height="37.501724"
       id="rect79612" />
    <rect
       x="212.5"
       y="377.46335"
       width="23.814777"
       height="41.647598"
       id="rect79618" />
    <rect
       x="201.07484"
       y="213.51247"
       width="190.71017"
       height="47.677544"
       id="rect20099" />
    <rect
       x="201.07484"
       y="213.51247"
       width="354.47217"
       height="49.750481"
       id="rect20105" />
    <rect
       x="201.07484"
       y="213.51247"
       width="190.71017"
       height="47.677544"
       id="rect20111" />
    <rect
       x="201.07484"
       y="213.51247"
       width="174.76695"
       height="374.26913"
       id="rect26459" />
    <rect
       x="201.07484"
       y="213.51247"
       width="456.04605"
       height="45.604607"
       id="rect28215" />
    <rect
       x="201.07484"
       y="213.51247"
       width="190.71017"
       height="47.677544"
       id="rect28217" />
    <rect
       x="201.07484"
       y="213.51247"
       width="354.47217"
       height="49.750481"
       id="rect28219" />
    <rect
       x="201.07484"
       y="213.51247"
       width="190.71017"
       height="47.677544"
       id="rect28221" />
    <rect
       x="201.07484"
       y="213.51247"
       width="354.47217"
       height="49.750481"
       id="rect28223" />
    <rect
       x="201.07484"
       y="213.51247"
       width="174.76695"
       height="374.26913"
       id="rect22008" />
    <rect
       x="201.07484"
       y="213.51247"
       width="174.76695"
       height="374.26913"
       id="rect27318" />
    <rect
       x="201.07484"
       y="213.51247"
       width="174.76695"
       height="374.26913"
       id="rect28310" />
    <rect
       x="201.07484"
       y="213.51247"
       width="829.81494"
       height="61.25568"
       id="rect58061" />
    <rect
       x="201.07484"
       y="213.51247"
       width="829.81494"
       height="61.25568"
       id="rect75396" />
  </defs>
  <g
     id="layer1">
    <rect
       style="fill:#ff7582;stroke-width:5;stroke-linecap:round;stroke-linejoin:round;stroke-dashoffset:10.8631;fill-opacity:1;stroke:none"
       id="rect1037"
       width="20"
       height="20"
       x="80"
       y="80" />
    <path
       id="path1422"
       style="fill:#8fc79a;stroke-width:5;stroke-linecap:round;stroke-linejoin:round;stroke-dashoffset:10.8631;fill-opacity:1;stroke:none"
       d="M 80.000001,53.956522 V 80.043478 H 166.95652 A 13.043477,13.043478 0 0 0 180,67 13.043477,13.043478 0 0 0 166.95652,53.956522 Z" />
    <path
       id="path1682"
       style="fill:#5e9387;stroke-width:5;stroke-linecap:round;stroke-linejoin:round;stroke-dashoffset:10.8631;fill-opacity:1;stroke:none"
       d="M 126.08696,80 H 100 v 86.95652 A 13.043478,13.043477 0 0 0 113.04348,180 13.043478,13.043477 0 0 0 126.08696,166.95652 Z" />
    <path
       id="path1720"
       style="fill:#cee986;stroke-width:5;stroke-linecap:round;stroke-linejoin:round;stroke-dashoffset:10.8631;fill-opacity:1;stroke:none"
       d="M 100,126.08696 V 100 H 13.04348 A 13.043477,13.043478 0 0 0 0,113.04348 13.043477,13.043478 0 0 0 13.04348,126.08696 Z" />
    <path
       id="path1740"
       style="fill:#2d8d79;stroke-width:5;stroke-linecap:round;stroke-linejoin:round;stroke-dashoffset:10.8631;fill-opacity:1;stroke:none"
       d="M 53.91304,100 H 80 V 13.04348 A 13.043478,13.043477 0 0 0 66.95652,0 13.043478,13.043477 0 0 0 53.91304,13.04348 Z" />
  </g>
  <metadata
     id="metadata25865">
    <rdf:RDF>
      <cc:Work
         rdf:about="">
        <cc:license
           rdf:resource="http://creativecommons.org/licenses/by-nc-sa/4.0/" />
      </cc:Work>
      <cc:License
         rdf:about="http://creativecommons.org/licenses/by-nc-sa/4.0/">
        <cc:permits
           rdf:resource="http://creativecommons.org/ns#Reproduction" />
        <cc:permits
           rdf:resource="http://creativecommons.org/ns#Distribution" />
        <cc:requires
           rdf:resource="http://creativecommons.org/ns#Notice" />
        <cc:requires
           rdf:resource="http://creativecommons.org/ns#Attribution" />
        <cc:prohibits
           rdf:resource="http://creativecommons.org/ns#CommercialUse" />
        <cc:permits
           rdf:resource="http://creativecommons.org/ns#DerivativeWorks" />
        <cc:requires
           rdf:resource="http://creativecommons.org/ns#ShareAlike" />
      </cc:License>
    </rdf:RDF>
  </metadata>
</svg>
